<?xml version="1.0" encoding="UTF-8" standalone="no"?>
<svg
   viewBox="0 0 20 20"
   fill="none"
   version="1.1"
   id="svg6"
   xmlns="http://www.w3.org/2000/svg"
   xmlns:svg="http://www.w3.org/2000/svg">
  <defs
     id="defs10" />
  <path
     d="M 9.9990775,0.24682747 C 4.4771172,0.24682747 0,4.7239441 0,10.247132 c 0,4.418183 2.8650357,8.165994 6.83876,9.488933 0.5003221,0.09147 0.6826481,-0.217317 0.6826481,-0.482519 0,-0.236962 -0.00859,-0.866202 -0.013507,-1.700482 -2.7815457,0.60407 -3.368427,-1.340741 -3.368427,-1.340741 C 3.6845803,15.057591 3.0289439,14.750031 3.0289439,14.750031 2.1209957,14.129387 3.0977,14.141665 3.0977,14.141665 c 1.0037137,0.07122 1.5316606,1.030725 1.5316606,1.030725 0.8919857,1.527978 2.3407711,1.08659 2.9104641,0.83121 0.090847,-0.646429 0.3486909,-1.087203 0.6347637,-1.337059 -2.2204475,-0.252309 -4.5550801,-1.11053 -4.5550801,-4.9424444 0,-1.0915013 0.3898207,-1.9841003 1.0294969,-2.6833232 -0.1031286,-0.252924 -0.4462989,-1.2695294 0.097617,-2.6464896 0,0 0.8398043,-0.268885 2.7502367,1.0251999 C 8.294304,5.1978685 9.150071,5.0867543 10.000312,5.083071 c 0.849014,0.00369 1.704779,0.1147978 2.503452,0.3364127 1.909207,-1.2940849 2.747169,-1.0251999 2.747169,-1.0251999 0.545751,1.3769602 0.202584,2.3935656 0.09945,2.6464896 0.640904,0.6992229 1.028271,1.5918219 1.028271,2.6833232 0,3.8417384 -2.338316,4.6870664 -4.566131,4.9344654 0.359125,0.308787 0.678964,0.918996 0.678964,1.852113 0,1.336443 -0.01228,2.415051 -0.01228,2.742871 0,0.267657 0.17987,0.5789 0.687559,0.481291 C 17.137422,18.409443 20,14.664088 20,10.247132 19.999992,4.7239441 15.522261,0.24682747 9.9990728,0.24682747"
     style="fill:#1b1817;fill-opacity:1;fill-rule:evenodd;stroke:none;stroke-width:0.613891"
     id="path1052" />
</svg>
